# xmcd CD database file
#
# Track frame offsets:
#	150
#	11950
#	23580
#	34012
#	46793
#	60632
#	74898
#	87389
#	97684
#	107981
#	122226
#	135845
#
# Disc length: 1965 seconds
#
# Revision: 0
# Processed by: cddbd v1.5.1PL0 Copyright (c) Steve Scherf et al.
# Submitted via: CDex 1.51
#
DISCID=9b07ab0c
DTITLE=Ray Charles - The Snow Is Falling
DYEAR=1996
DGENRE=Blues
TTITLE0=How Long Blues
TTITLE1=See See Rider
TTITLE2=Hey Now
TTITLE3=The Snow Is Falling
TTITLE4=Misery In My Heart
TTITLE5=Walkin' And Talkin'
TTITLE6=Rockin' Chair Blues
TTITLE7=Ain't That Fine
TTITLE8=Sillin On Top Of The World
TTITLE9=Someday (Blues Is My Middle Name)
TTITLE10=Baby Let Me Hold Your Hand
TTITLE11=Back Home
EXTD=YEAR: 1996
EXTT0=
EXTT1=
EXTT2=
EXTT3=
EXTT4=
EXTT5=
EXTT6=
EXTT7=
EXTT8=
EXTT9=
EXTT10=
EXTT11=
PLAYORDER=
